<?xml version="1.0" encoding="UTF-8"?> <svg xmlns="http://www.w3.org/2000/svg" width="445" height="150" viewBox="0 0 445 150" fill="none"><g clip-path="url(#clip0_73_2080)"><path d="M0.106445 90.8148L7.88936 49.8549H19.9287L12.154 90.8066H0.106445V90.8148ZM9.56241 38.8819C9.64442 34.7752 12.8265 32.0156 16.5006 32.0156C20.1747 32.0156 22.5203 34.3564 22.5203 37.962C22.5203 42.2329 19.2562 44.7462 15.4098 44.7462C12.0638 44.7462 9.5542 42.4876 9.5542 38.8819H9.56241Z" fill="black"></path><path d="M22.2744 90.8148L27.4576 63.1769C28.4581 57.9861 29.1306 53.4605 29.6309 49.8631H40.3334L39.4969 56.6473H39.6609C43.5073 51.284 48.6084 48.9432 54.0458 48.9432C60.7379 48.9432 64.5023 53.0499 64.5023 60.0805C64.5023 61.9203 64.166 65.0249 63.8298 67.029L59.3109 90.8148H47.2716L51.5362 68.1213C51.7905 66.7004 51.9545 65.0249 51.9545 63.5137C51.9545 60.6636 50.9539 58.6596 47.9441 58.6596C44.0157 58.6596 39.4149 63.604 37.7418 72.6469L34.3137 90.823H22.2744V90.8148Z" fill="black"></path><path d="M70.858 80.006C73.2035 81.1805 77.6322 82.856 81.5605 82.856C84.9886 82.856 86.7437 81.1805 86.7437 79.1683C86.7437 77.156 85.4069 75.7351 81.6425 73.8953C76.8777 71.5463 72.9493 68.1131 72.9493 63.0044C72.9493 54.5447 80.396 48.935 90.9263 48.935C95.6912 48.935 99.4555 49.8549 101.465 51.0294L98.619 59.5713C96.8639 58.7335 94.0181 57.7315 90.426 57.7315C87.244 57.7315 85.0706 59.1524 85.0706 61.3289C85.0706 63.0044 86.7437 64.4253 90.0898 66.0187C94.5184 68.2774 99.2095 71.5463 99.2095 77.2381C99.2095 86.6177 91.2625 91.6443 80.478 91.6443C75.2948 91.6443 70.3577 90.3055 67.9302 88.4575L70.858 79.9978V80.006Z" fill="black"></path><path d="M127.307 38.3809L125.133 49.8549H133.835L132.08 58.9799H123.378L120.623 72.885C120.287 74.5606 119.95 76.655 119.95 78.0759C119.95 80.0881 120.787 81.509 123.378 81.509C124.469 81.509 125.634 81.509 126.724 81.3448L125.306 90.8065C123.797 91.3897 120.787 91.7264 118.195 91.7264C111.003 91.7264 107.575 88.0386 107.575 82.9299C107.575 80.6713 107.829 78.4044 108.411 75.308L111.593 58.9717H106.41L108.083 49.8467H113.348L115.021 41.2227L127.315 38.3727L127.307 38.3809Z" fill="black"></path><path d="M159.751 90.8147C159.833 88.3836 160.087 85.6239 160.333 82.6918H160.079C156.314 89.476 151.131 91.7346 146.366 91.7346C139.01 91.7346 133.991 86.0428 133.991 77.4927C133.991 63.6697 143.11 48.935 163.261 48.935C168.108 48.935 173.381 49.8549 176.809 50.9473L172.462 72.384C171.462 77.657 170.707 85.6978 170.871 90.8065H159.751V90.8147ZM163.261 58.405C162.342 58.2407 161.169 58.0682 159.997 58.0682C152.222 58.0682 146.53 67.6203 146.53 75.2341C146.53 79.2504 148.121 82.0183 151.467 82.0183C155.06 82.0183 159.496 77.9116 161.333 67.8667L163.261 58.405V58.405Z" fill="black"></path><path d="M179.737 90.8148L184.92 63.1769C185.92 57.9861 186.593 53.4605 187.093 49.8631H197.796L196.959 56.6473H197.123C200.97 51.284 206.071 48.9432 211.508 48.9432C218.2 48.9432 221.965 53.0499 221.965 60.0805C221.965 61.9203 221.628 65.0249 221.292 67.029L216.773 90.8148H204.734L208.999 68.1213C209.253 66.7004 209.417 65.0249 209.417 63.5137C209.417 60.6636 208.416 58.6596 205.407 58.6596C201.478 58.6596 196.877 63.604 195.204 72.6469L191.776 90.823H179.737V90.8148Z" fill="black"></path><path d="M241.59 49.8056L239.827 58.9881H253.949L255.712 49.8056H241.59Z" fill="black"></path><path d="M250.488 35.8101L243.288 72.8851C242.951 74.5606 242.615 76.655 242.615 78.0759C242.615 80.0882 243.452 81.5091 246.043 81.5091C247.134 81.5091 248.561 81.5091 249.644 81.3448L247.782 90.8066C246.273 91.3897 243.443 91.7265 240.852 91.7265C233.659 91.7265 230.231 88.0387 230.231 82.93C230.231 80.6713 230.486 78.4044 231.068 75.308L234.242 58.9717H229.059L230.732 49.8467H235.997L238.711 35.8019H250.472L250.488 35.8101Z" fill="black"></path><path d="M316.098 51.9493H285.335L281.194 73.7721H317.156L314.08 90.2398H258.87L275.978 0H329.318L326.112 16.4677H292.159L288.419 35.7444H319.182L316.106 51.9411L316.098 51.9493Z" fill="#006397"></path><path d="M335.855 0H388.662L385.456 16.4677H352.036L347.894 37.617H379.305L376.098 53.9533H344.819L338.004 90.2316H318.755L335.855 0Z" fill="#006397"></path><path d="M397.536 16.8702H341.784L345.122 0H444.053L440.846 16.8702H416.784L403.014 90.2398H383.766L397.536 16.8702V16.8702Z" fill="#006397"></path><path d="M190.521 23.6708L189.39 29.6173H259.748L260.879 23.6708H190.521Z" fill="#006397"></path><path d="M209.351 11.8436L208.22 17.7819H261.937L263.069 11.8436H209.351Z" fill="#006397"></path><path d="M226.91 0.00820923L225.778 5.95466H264.201L265.333 0.00820923H226.91Z" fill="#006397"></path><path d="M4.42044 140.16H0V109.829H5.77363V123.019C6.73317 120.416 9.28373 118.346 13.0809 118.346C19.3302 118.346 22.6517 123.307 22.6517 129.565C22.6517 135.824 19.3302 140.735 12.9907 140.735C9.29194 140.735 6.59375 138.715 5.48659 136.062L4.42864 140.152L4.42044 140.16ZM5.71622 129.951C5.71622 133.853 8.02075 136.21 11.293 136.21C14.9508 136.21 16.8206 133.565 16.8206 129.565C16.8206 125.565 14.9425 122.871 11.293 122.871C8.02075 122.871 5.71622 125.278 5.71622 129.13V129.951V129.951Z" fill="black"></path><path d="M29.1306 148.053L32.4029 140.251L23.603 118.921H29.6637L35.4373 133.417H35.626L41.3504 118.921H46.9764L34.814 148.053H29.1388H29.1306Z" fill="black"></path><path d="M134.664 123.684H131.457V118.403H134.664V116.26C134.664 111.159 138.428 108.572 143.455 108.572C145.071 108.556 146.678 108.794 148.22 109.287V114.297C147.138 113.943 146.006 113.763 144.866 113.755C142.635 113.755 141.561 114.789 141.561 116.752V118.403H148.483V123.684H141.471V140.875H134.664V123.684V123.684Z" fill="black"></path><path d="M82.8896 134.518C82.8896 130.888 85.4812 128.251 91.3287 128.251H98.5211V126.773C98.5211 124.095 97.0039 123.019 93.8792 123.019C91.3287 123.019 89.8607 124.095 89.8607 125.886C89.8607 126.017 89.8607 126.378 89.9017 126.822H83.6524C83.595 126.395 83.5621 125.96 83.5539 125.524C83.5539 121.048 87.4823 118.403 94.1827 118.403C100.883 118.403 105.303 121.533 105.303 127.446V140.859H98.5129C98.7097 139.364 98.8245 137.869 98.8655 136.366H98.8163C98.1438 139.495 95.6425 141.195 91.6239 141.195C86.4654 141.22 82.8896 138.986 82.8896 134.518V134.518ZM98.5211 132.391V131.947H91.952C90.1149 131.947 89.0077 132.801 89.0077 134.058C89.0077 135.75 90.4757 136.653 92.9361 136.653C96.479 136.62 98.5211 135.052 98.5211 132.399V132.391Z" fill="black"></path><path fill-rule="evenodd" clip-rule="evenodd" d="M112.873 118.395H106.156L112.143 140.867H117.326C116.342 143.553 114.824 144.546 112.446 144.546C111.462 144.546 110.486 144.423 109.535 144.177V149.4C110.945 149.844 112.43 150.049 113.906 150C118.17 150 121.812 147.405 123.731 140.867L129.759 118.403H123.026L118.023 138.46L112.873 118.403V118.395Z" fill="black"></path><path d="M149.327 134.518C149.327 130.888 151.927 128.251 157.774 128.251H164.959V126.773C164.959 124.095 163.441 123.019 160.317 123.019C157.774 123.019 156.298 124.095 156.298 125.886C156.298 126.198 156.315 126.51 156.347 126.822H150.09C150.032 126.395 150.008 125.96 150 125.524C150 121.048 153.969 118.403 160.628 118.403C167.64 118.403 171.749 121.533 171.749 127.446V140.859H164.95C165.131 139.372 165.237 137.885 165.27 136.391H165.221C164.557 139.52 162.047 141.22 158.029 141.22C152.903 141.22 149.327 138.986 149.327 134.518V134.518ZM164.959 132.391V131.947H158.389C156.561 131.947 155.445 132.801 155.445 134.058C155.445 135.75 156.921 136.653 159.415 136.653C162.908 136.62 164.959 135.052 164.959 132.399V132.391Z" fill="black"></path><path d="M174.292 133.401H180.352C180.352 135.446 181.386 136.785 185.256 136.785C188.783 136.785 190.005 135.758 190.005 134.148C190.005 133.352 189.611 132.719 188.422 132.448C186.724 132.136 185.019 131.931 183.296 131.832C180.131 131.561 177.679 131.035 176.35 130.132C175.686 129.623 175.144 128.974 174.784 128.218C174.423 127.463 174.234 126.633 174.25 125.804C174.25 121.048 179.155 118.395 185.256 118.395C192.474 118.395 195.779 121.163 195.779 126.329H189.808C189.759 124.013 188.693 122.806 185.347 122.806C182.32 122.806 180.984 123.832 180.984 125.344C180.943 125.812 181.082 126.28 181.377 126.65C181.673 127.019 182.099 127.257 182.566 127.315C184.363 127.635 186.183 127.857 188.004 127.98C190.718 128.251 192.638 128.522 194.286 129.458C195.04 129.91 195.664 130.551 196.098 131.315C196.525 132.079 196.746 132.949 196.738 133.828C196.738 138.468 192.777 141.187 185.248 141.187C177.547 141.154 174.292 137.852 174.292 133.401V133.401Z" fill="black"></path><path fill-rule="evenodd" clip-rule="evenodd" d="M201.61 110.535L209.467 110.551V112.383C209.458 115.685 206.809 118.354 203.529 118.403H214.666V123.684H207.588V132.875C207.588 135.159 208.671 135.873 211.345 135.873C212.378 135.873 213.411 135.758 214.428 135.561V140.703C213.018 141.006 211.582 141.162 210.139 141.187C203.266 141.187 200.798 138.148 200.798 133.228V123.676H197.583V118.395H201.602V110.527L201.61 110.535Z" fill="black"></path><path d="M56.957 118.765H63.682L63.5508 123.266H63.5918C64.4365 120.235 67.2495 118.403 71.0385 118.403C77.1811 118.403 81.1997 122.781 81.1997 129.294C81.1997 136.432 77.1811 141.187 70.9892 141.187C66.9789 141.187 64.4857 139.536 63.5098 136.867C63.6 138.337 63.7312 140.522 63.7312 141.327V149.671H56.9652V118.765H56.957ZM74.4584 129.565C74.4584 125.992 72.4081 123.586 69.3326 123.586C65.9537 123.586 63.682 126.034 63.682 129.738V130.723C63.682 133.894 65.9537 135.988 69.3818 135.988C72.4081 135.988 74.4584 133.401 74.4584 129.565Z" fill="black"></path></g><defs><clipPath id="clip0_73_2080"><rect width="444.053" height="150" fill="white"></rect></clipPath></defs></svg> 