<svg xmlns="http://www.w3.org/2000/svg" width="66.001" height="59.074" viewBox="0 0 66.001 59.074">
  <path id="Path_11001" data-name="Path 11001" d="M11.239,28.1l.6-.91.547-.829.548-.829.547-.829.548-.829.547-.829.548-.829.547-.829.548-.829.547-.829.548-.829.547-.829.548-.829.547-.829.547-.829.547-.829.548-.829.547-.829.548-.829.547-.829.548-.829.547-.829.547-.829.547-.829.548-.829.547-.829.548-.829.547-.829.548-.829.547-.829.548-.829.625-.946.267-.3.232-.222.256-.208L29.93.457,30.251.29,30.606.16l.383-.085.4-.029.4.029L32.17.16l.355.131.321.166.286.19.257.209.233.223.3.331.443.749.347.588.347.588.347.588.347.588L36.1,5.1l.347.588.347.588.347.588.347.588.347.588.347.588.347.588.347.588.347.588.347.588.347.588.347.588.347.588.347.588.347.588.347.588.347.588.347.588.347.588.347.588.347.588.347.588.347.588.347.588.347.588,2.01,3.407H37.14L35.315,20.13l-.183-.308L33.85,17.663l-.183-.308L32.385,15.2l-.183-.308L31.257,13.3l-.238.348-.257.374-.256.373-.512.748-.257.374-.256.373-.512.748-.257.374-.256.373-.512.748-.257.374-.256.373-.512.748L26.661,20l-.256.373-.513.748-.257.374-.256.373-.512.748-.257.374-.256.374-.256.374-.256.374-.239.348-.039.061H47.543l.631,1.08.266.457.089.152.178.306.088.151.088.152.266.457.089.152.178.306.088.151.088.152.266.457.089.152.178.306.088.151.089.152.266.457.089.152.178.306,1.72,2.961H13.739l-.446-.048-.431-.093-.426-.149-.413-.213-.385-.282L11.3,32l-.273-.4-.2-.428-.121-.438-.053-.428,0-.411.049-.391.087-.372.117-.353.144-.337Zm20.2-16.247-.063-.055-.046-.032-.018-.01,0,0-.038.021-.056.039-.071.06-.083.083-.073.083-.224.327-.513.748-.257.374-.256.374-.512.748-.257.374-.256.374-.512.748-.257.374-.256.374-.512.748-.257.374-.256.374-.512.748-.257.374-.256.374-.513.748-.257.374-.256.374-.513.748-.257.374-.256.374-.256.374-.256.374-.248.361-.158.248-.124.227-.1.212-.071.194L22.325,25l-.024.146-.006.115.007.08.011.046.008.018h0l.012.008.043.017.087.018.163.01H47.006l.36.616.266.457.089.152.178.305.089.152.089.152.266.457.089.152.178.305.088.152.089.152.266.457.089.152.178.305.088.152.089.152.266.457.089.152.178.305.9,1.557H13.789l-.347-.037-.326-.07-.31-.108-.29-.15-.264-.193-.227-.233-.182-.266-.133-.288-.083-.3-.037-.3,0-.295.036-.289.066-.282.092-.275.115-.269.144-.278.574-.87.547-.829.547-.829.547-.829.547-.829.547-.829.547-.829.547-.829L17,21.07l.547-.829.548-.829.547-.829.548-.829.547-.829.548-.829.547-.829.548-.829.547-.829.548-.829.547-.829.548-.829.547-.829.548-.829.547-.829.547-.829.547-.829.547-.829.547-.829.548-.829.547-.829.548-.829.586-.888.2-.218.18-.172L30.2,1.4l.207-.138.224-.116.241-.089L31.125,1l.263-.019L31.651,1l.255.057.241.089.224.116.207.137.192.156.18.173.212.236.395.668.347.588.347.588L34.6,4.4l.347.588.347.588.347.588.347.588.347.588.347.588.347.588.347.588.347.588.347.588.347.588.347.588.347.588.347.588.347.588.347.588.347.588.347.588.347.588.347.588.347.588.347.588.347.588.347.588.347.588.347.588.347.588,1.178,2H37.672l-1.553-2.616-.183-.308-1.282-2.159-.183-.308-1.282-2.159-.183-.308-1.282-2.159L31.578,12l-.062-.075Zm12.071,9.485H38.2l-5.86-9.869c-.7-.9-1.4-.843-2.1,0l-8.2,11.967c-1.052,1.543-.91,2.962.555,2.961H46.47l2.837,4.873H13.839c-1.4-.082-1.6-1.131-.987-2.221L30.37,2.521a1.162,1.162,0,0,1,2.036,0l11.1,18.813m.576-20.171A2.955,2.955,0,1,1,41.13,4.119a2.96,2.96,0,0,1,2.955-2.955m0-.627A3.581,3.581,0,1,1,40.5,4.119,3.588,3.588,0,0,1,44.085.537m0-.537a4.119,4.119,0,1,1-4.119,4.119A4.126,4.126,0,0,1,44.085,0M42.761,5.82V2.238h1.522a1.948,1.948,0,0,1,.7.1.776.776,0,0,1,.382.34,1.054,1.054,0,0,1,.142.54.919.919,0,0,1-.237.642,1.176,1.176,0,0,1-.73.333,1.129,1.129,0,0,1,.274.178,2.465,2.465,0,0,1,.377.476l.6.975h-.571l-.454-.745c-.133-.214-.242-.379-.328-.493a1.027,1.027,0,0,0-.23-.239.671.671,0,0,0-.207-.1,1.368,1.368,0,0,0-.253-.017h-.527V5.82Zm.454-2h.977a1.4,1.4,0,0,0,.487-.068.523.523,0,0,0,.267-.215.6.6,0,0,0,.091-.321A.543.543,0,0,0,44.86,2.8a.8.8,0,0,0-.559-.163H43.215Zm-7.43,46.849H40.7l-2.459-7.007ZM18.8,38.475H29.69v2.814H21.32v5.267H29.69v2.814H21.32V54.2h8.974l5.749-15.729h4.4L45.8,53.137V38.475h3.175v8.451l1.762-1.808.27-.277L57.186,38.5h3.941l-6.938,7.121,6.172,11.394H57.186l-5.037-9.3-3.17,3.359v5.941H43.831L42.75,54.059H33.738l-1.081,2.958H18.742a.608.608,0,0,1-.594-.6l0,0V39.14l0,0c0-.019,0-.037,0-.057a.608.608,0,0,1,.606-.607l.05,0M10.073,49.5a3.689,3.689,0,1,1,3.668-3.689A3.686,3.686,0,0,1,10.073,49.5m0-.62a3.069,3.069,0,1,1,3.052-3.069,3.066,3.066,0,0,1-3.052,3.069m0,1.577a4.646,4.646,0,1,1,4.62-4.646,4.642,4.642,0,0,1-4.62,4.646M2.056,38.475h1.01v0H8.721l1.481,0a6.941,6.941,0,0,1,6.9,7.287,7.175,7.175,0,0,1-7.028,7.288,6.77,6.77,0,0,1-3.111-.756v4.725H2.056ZM36.927,50.018h2.633l-1.317-4.071ZM13.884,37.206l.407.194.394.214.381.233.366.251.351.268.336.285.006.006.012-.115.157-.5.248-.455.325-.394.394-.325.455-.247.505-.157.432-.043H31.746v6.926H23.377V44.5h8.275l2.954-8.081h7.276l1.866,5.1v-5.1h7.287V41.87l5.284-5.423H66l-9.284,9.528,7.1,13.1H55.961L51.694,51.2l-.659.7v7.18H42.394l-1.081-2.958H35.175l-1.081,2.958H18.86l-.251,0-.433-.053-.49-.16-.443-.247-.384-.32-.318-.386-.244-.445-.152-.478-.056-.435v-3.8l-.212.191-.342.279-.356.263-.368.245-.381.228-.393.209-.4.19-.415.17-.425.15-.434.128-.443.107L11.465,55l-.458.061-.464.037-.45.012H9.937l-.136,0L9.667,55.1l-.134-.007L9.4,55.079l-.134-.011-.132-.013-.114-.013v4.032H0V36.418H1.01v0h9.24l.473.019.48.043.472.066.463.089.453.11.443.133.432.154ZM29.12,51.425H23.377v.722h5.48ZM10.162,37.352h.066l.435.018.434.039.426.059.416.08.407.1.4.119.386.137.375.156.363.173.352.191.339.208.326.224.313.239.3.254.285.268.27.282.256.294.241.307.226.319.21.33.042.073V39.037l.031-.306.1-.327.16-.3.211-.256.256-.211.295-.16.327-.1.291-.029H30.811V42.41H22.442v3.024h8.369v4.087l4.448-12.168h5.969L44.683,46.8V37.353H50.1v6.815l.107-.11,6.506-6.677h7.073l-8.218,8.434,6.675,12.324H56.518L51.9,49.615l-1.8,1.908v6.617H43.047l-1.081-2.958H34.522l-1.081,2.958H18.67l-.29-.035-.318-.1-.287-.16-.249-.208-.207-.251-.158-.288-.1-.311-.038-.293V50.142l-.186.3-.226.33-.241.318-.255.305-.269.293-.282.279-.3.265-.307.251-.319.236-.331.22-.341.2-.352.187-.362.17-.371.152-.38.134-.388.115-.4.1-.4.075-.409.054-.415.033-.41.011H9.952l-.121,0-.12,0-.12-.006-.12-.008-.12-.01-.119-.012-.119-.014L8.994,54.1l-.117-.017L8.76,54.06l-.117-.021-.116-.022-.115-.024L8.3,53.968l-.115-.027-.1-.025v4.224H.935V37.353h1.01v0h8.218ZM30.457,50.491H22.442v2.591H29.51Z" fill="red" fill-rule="evenodd"/>
</svg>
