<svg xmlns="http://www.w3.org/2000/svg" width="229.722" height="205.612" viewBox="0 0 229.722 205.612">
  <path id="Path_11002" data-name="Path 11002" d="M39.117,97.79l2.092-3.169,1.906-2.885,1.906-2.885,1.9-2.884,1.906-2.886L50.736,80.2l1.906-2.884,1.9-2.884,1.906-2.886,1.905-2.885,1.906-2.884,1.9-2.884L64.074,60l1.906-2.885,1.906-2.884,1.9-2.884L71.7,48.462,73.6,45.577l1.906-2.884,1.9-2.884,1.906-2.886,1.906-2.885,1.906-2.885,1.9-2.884,1.906-2.886L88.844,22.5l1.906-2.884,1.9-2.884,1.906-2.886,1.905-2.885,1.906-2.884,2.174-3.293.929-1.029.807-.774.892-.725,1-.664,1.119-.578,1.234-.456,1.333-.3,1.389-.1,1.391.1,1.333.3,1.237.456,1.116.578,1,.662.894.726.809.777,1.037,1.152,1.54,2.607,1.207,2.047,1.208,2.046,1.207,2.046,1.208,2.046,1.207,2.046,1.208,2.046,1.207,2.046,1.208,2.046,1.207,2.047,1.208,2.046,1.207,2.046,1.208,2.046,1.207,2.046,1.208,2.046,1.207,2.046,1.208,2.046,1.207,2.047,1.208,2.046,1.207,2.046,1.208,2.046,1.207,2.046,1.208,2.046,1.207,2.046,1.208,2.046,1.207,2.047L151,60.717l1.207,2.046,1.208,2.046,1.207,2.046,1.208,2.046,7,11.858H129.268l-6.35-10.7-.638-1.073-4.461-7.514-.638-1.073-4.461-7.514-.638-1.073-3.288-5.539-.83,1.211-.893,1.3-.891,1.3-1.784,2.6L103.5,54l-.891,1.3-1.784,2.6-.894,1.3-.891,1.3-1.784,2.6-.893,1.3-.892,1.3-1.784,2.6-.893,1.3-.891,1.3-1.784,2.6-.893,1.3-.891,1.3-1.784,2.6-.894,1.3-.892,1.3-.893,1.3-.892,1.3-.831,1.212-.135.211h83.46l2.2,3.759.925,1.59.309.53.62,1.066.306.526.308.528.925,1.59.309.53.62,1.066.306.526.308.528.925,1.59.31.53.62,1.066.306.526.308.528.925,1.59.309.53.62,1.066,5.987,10.307H47.819l-1.553-.167-1.5-.324-1.481-.518-1.439-.74-1.34-.98-1.176-1.2-.949-1.382-.689-1.491L37.27,107l-.186-1.491.012-1.43.171-1.362.3-1.294.409-1.229.5-1.174Zm70.3-56.549-.22-.192-.161-.113-.061-.033-.016.006-.132.073-.194.137-.248.21-.29.288-.255.289-.78,1.138-1.784,2.6-.893,1.3-.892,1.3-1.784,2.6-.893,1.3-.892,1.3-1.784,2.6-.893,1.3-.892,1.3-1.784,2.6-.893,1.3-.892,1.3L91,66.474l-.893,1.3-.892,1.3-1.784,2.6-.893,1.3-.892,1.3-1.784,2.6-.893,1.3-.892,1.3-.893,1.3-.892,1.3-.862,1.257-.55.863L78.453,85l-.339.739-.248.676-.161.6-.084.507-.02.4.024.279.039.159.027.061v0l.043.027.151.059.3.063.569.036h84.852l1.252,2.145.925,1.59.309.53.618,1.063.308.529.308.529.925,1.59.309.53.619,1.063.307.529.309.529.925,1.59.309.53.618,1.063.308.529.308.529.925,1.59.309.53.619,1.063,3.147,5.419H47.994l-1.209-.13-1.134-.245-1.078-.377-1.011-.521-.917-.67-.791-.809-.635-.925-.463-1-.288-1.038-.13-1.041.008-1.025.125-1.005.229-.982.319-.958.4-.938.5-.967,2-3.027,1.906-2.885,1.906-2.884,1.9-2.885,1.906-2.886,1.906-2.885L55.356,79.1l1.9-2.885,1.906-2.886,1.905-2.884,1.906-2.885,1.9-2.885,1.906-2.886,1.905-2.885L70.6,56.025l1.9-2.884,1.906-2.886,1.905-2.885,1.906-2.885,1.9-2.885,1.906-2.886,1.905-2.885,1.906-2.884,1.9-2.885,1.906-2.886,1.906-2.885,1.906-2.885,1.9-2.885,1.906-2.886,1.905-2.884,1.906-2.885,2.04-3.089.685-.76.625-.6.668-.542.72-.479.781-.4.839-.309.888-.2.916-.067.917.067.888.2.84.31.779.4.72.478.669.543.626.6.739.822L116.8,9.166l1.207,2.046,1.208,2.046,1.207,2.046,1.208,2.046,1.207,2.046,1.208,2.046,1.207,2.046,1.208,2.046,1.207,2.046,1.208,2.046,1.207,2.046,1.208,2.046,1.207,2.046,1.208,2.046,1.207,2.046,1.208,2.046,1.207,2.046L138.537,46l1.207,2.046,1.208,2.046,1.207,2.046,1.208,2.046,1.207,2.046,1.208,2.046,1.207,2.046L148.2,62.37l1.207,2.046,1.208,2.046,1.207,2.046,1.208,2.046,4.1,6.952H131.12L125.714,68.4l-.638-1.073-4.461-7.514-.638-1.073-4.461-7.514-.638-1.073-4.461-7.514-.509-.857-.216-.261Zm42.014,33.015H132.971L112.576,39.9c-2.434-3.149-4.868-2.934-7.3,0L76.722,81.555c-3.66,5.37-3.167,10.309,1.933,10.305H161.74l9.876,16.961H48.168c-4.867-.286-5.582-3.936-3.436-7.729L105.705,8.774q3.542-4.186,7.085,0l38.645,65.482m2.006-70.2a10.284,10.284,0,1,1-10.284,10.284A10.3,10.3,0,0,1,153.44,4.051m0-2.182a12.465,12.465,0,1,1-12.465,12.465A12.489,12.489,0,0,1,153.44,1.87m0-1.87a14.335,14.335,0,1,1-14.335,14.335A14.362,14.362,0,0,1,153.44,0m-4.608,20.256V7.791h5.3a6.779,6.779,0,0,1,2.428.336,2.7,2.7,0,0,1,1.329,1.184,3.668,3.668,0,0,1,.5,1.881,3.2,3.2,0,0,1-.823,2.234,4.1,4.1,0,0,1-2.543,1.158,3.929,3.929,0,0,1,.954.621,8.579,8.579,0,0,1,1.313,1.657l2.078,3.393h-1.989l-1.58-2.595c-.461-.746-.843-1.321-1.143-1.715a3.576,3.576,0,0,0-.8-.833,2.334,2.334,0,0,0-.721-.334,4.76,4.76,0,0,0-.881-.058h-1.833v5.534Zm1.58-6.962h3.4a4.87,4.87,0,0,0,1.694-.235,1.819,1.819,0,0,0,.929-.749,2.083,2.083,0,0,0,.317-1.117,1.891,1.891,0,0,0-.615-1.454,2.794,2.794,0,0,0-1.945-.569h-3.78Zm-25.862,163.06h17.12l-8.56-24.387Zm-59.1-42.441h37.889v9.794H74.207v18.332h29.131v9.794H74.207v16.826H105.44l20.011-54.746H140.77l18.654,51.033V133.913h11.05v29.416l6.132-6.293.939-.964,21.495-22.06h13.718L188.609,158.8l21.48,39.657H199.04l-17.532-32.368-11.033,11.692v20.677H152.558l-3.764-10.3H117.427l-3.764,10.3H65.233a2.116,2.116,0,0,1-2.068-2.082l-.007-.007V136.231l.016-.017c-.006-.065-.01-.13-.01-.2a2.115,2.115,0,0,1,2.111-2.111c.059,0,.116,0,.173.008M35.061,172.278a12.839,12.839,0,1,1,12.766-12.839,12.828,12.828,0,0,1-12.766,12.839m0-2.156a10.683,10.683,0,1,1,10.623-10.683,10.673,10.673,0,0,1-10.623,10.683m0,5.489a16.172,16.172,0,1,1,16.08-16.172,16.157,16.157,0,0,1-16.08,16.172m-27.9-41.7H10.67V133.9H30.352c2.226,0,4.449,0,5.154.006,14.569.248,24.015,11.544,24.015,25.362,0,13.971-10.988,25.367-24.461,25.367a23.565,23.565,0,0,1-10.828-2.632v16.447H7.156Zm121.371,40.176h9.166l-4.583-14.168ZM48.323,129.5l1.416.677,1.373.745,1.325.811,1.272.873,1.222.934,1.168.993.02.02.041-.4.547-1.756.862-1.584,1.132-1.37,1.372-1.133,1.582-.86,1.759-.548,1.5-.151h.51l.13,0,.1,0h44.84v24.107H81.363v4.019h28.8l10.281-28.126h25.326l6.494,17.766V126.757H177.63V145.73l18.39-18.874h33.7L197.41,160.018,222.1,205.609H194.777l-14.852-27.421-2.294,2.431v24.99H147.555l-3.764-10.3H122.43l-3.764,10.3H65.674l-.03,0-.873-.007-1.507-.184-1.706-.556-1.542-.858-1.337-1.114-1.106-1.345L56.724,200l-.528-1.662-.2-1.516V183.606l-.739.665-1.191.971-1.239.914-1.282.854-1.326.792-1.367.729-1.408.662L46,189.784l-1.479.521-1.51.446-1.543.371-1.57.292-1.593.211-1.615.128-1.568.042-.542,0-.472-.011-.468-.018-.467-.025-.467-.032-.466-.039-.461-.046-.4-.045v14.034H0V126.757H3.514v-.009H35.381l.294,0,1.648.067,1.669.15,1.642.229,1.61.308,1.576.384,1.541.461,1.5.535Zm53.031,49.493H81.363V181.5h19.073ZM35.37,130.005l.228,0,1.514.061,1.51.135,1.482.207,1.449.278,1.415.345,1.381.413,1.344.478,1.3.543,1.265.6,1.224.665,1.181.723,1.134.778,1.089.833,1.041.885.992.934.94.98.89,1.025.839,1.069.786,1.11.731,1.149.145.254v-7.494l0-.028,0-.084.108-1.065.354-1.137.558-1.027.735-.89.89-.735,1.026-.558,1.14-.354,1.012-.1h.379l.08,0,.043,0h41.66v17.6H78.111v10.525h29.131v14.226l15.481-42.352H143.5L155.521,162.9V130.01h18.856v23.72l.372-.381,22.644-23.24h24.618l-28.6,29.355,23.233,42.894H196.714l-16.071-29.67-6.267,6.64v23.029H149.829l-3.764-10.3H120.156l-3.764,10.3h-50.9l-.018,0-.5,0-1.01-.123-1.106-.36-1-.557L61,200.591l-.719-.873-.55-1-.344-1.082-.132-1.018v-22.09l-.649,1.047-.787,1.147-.839,1.106-.888,1.063-.937,1.018-.982.971-1.028.923-1.069.872-1.112.821-1.151.766-1.188.71-1.225.653-1.261.593-1.291.53-1.324.466-1.35.4-1.379.332-1.4.261-1.424.189-1.444.114-1.426.038-.46,0-.422-.01-.419-.016-.419-.022-.417-.029-.417-.035-.413-.041-.415-.047-.411-.053-.408-.059-.408-.066-.407-.072-.4-.078-.4-.084-.4-.088-.4-.1-.344-.088v14.7H3.253V130.01H6.767V130h28.6Zm70.637,45.732h-27.9v9.018h24.6Z" fill="#fff" fill-rule="evenodd"/>
</svg>
